<svg xmlns="http://www.w3.org/2000/svg" viewBox="0 0 800 800"><path id="oranje" fill="#DC542C" fill-rule="evenodd" d="M459 748zh-1l-1-1h-2q0 2-2-1h-4v1l-1-1h-3l-2-1h-3v-1l-1-1h-1l-2-1h-3l-2-1h-1l-2-1h-2l-3-2-2 1-2-1h-1l-1-1h-3l-1-1-1-1h-2l-6-1h-1l-2-1h-1l-2-1-1-1h-3l-1-1v-1h-5l-1-1-2-1h-3l-2-1h-1l-1-1h-6v-1l-1-1h-2l-3-1h-1l-1-1h-3l-2-1-2-1h-4l-1-1-1-1h-4l-2-1-1-1h-2l-1-1h-5v-2h-8v-1l-1-1h-6l-1-1h-1l-2-1h-1l-1-1h-2l-3-1-4-1-1-1h-6l-1-1-3-1-2-1h-2l-1-1-3-1h-1l-2-1h-2l-1-1h-1l-1-1v1l-2-1-2-1h-1l-1-1h-1l-1-1v1l-1-1h-2l-1-1h-3l-2-1h-1l-1-1-1-1h-3l-2-1h-2l-1-1h-1l-2-1-2-1-1-1h-4v-1l-1-1h-1l-1-1h-2l-2-1-2-1v-1h-5l-2-1h-1l-1-1-2-1-1-1h-4l-1-1h-1l-1-1h-2l-1-1-3-1-2-1-1-1h-2l-1-1h-1l-1-1h-1l-1-1-1-1h-2l-1-1h-1l-2-1h-2l-1-1h-1l-2-1-1-1-2-1v-1h-4l-2-2h-2l-1-1-2-1-2-1h-1l-1-1-2-1h-1v-1h-2v-1h-1l-1-1-2-1-2-1h-1l-1-1h-2l-2-1h-1l-1-1h-1l-3-1h-1l-1-1h-1l-2-1v-1h-2l-1-1h-1l-1-1h-1l-2-1-2-1h-1l-1-1-1-1v-18h-1l1-2v-5l-1-1v-1h1v-3l-1-3v-1q2-1 0-2l1-3-1-1v-21l1-1v-1l-1-1v-1l1-1-1-2 1-1-1-2v-2l-1-1h1l1 1v-7l-1-1 1-1-1-1v-9l-1-1 1-1v1l1-1v-1l-1-2 1-1v-2h-1q1 1-1 1l1-1v-7l1-2-1-1v-2l1-1v-3l-1-1v-8h1v-4h-1l1-1v-4l-1-2v-7l1-1v-2l-1-2h1v-9l-1-1 1-1 1-1h-2l1-2v-1l-1-1-1-1h1q1 2 1-1v-11l-1-1 1-3v-10h-1v-4l1-1v-2q0-1 0 0v-4l-1-1 1-1v-2l-1-2v-3h1v-1l-1-2v-4q-1-2 1-2v-2l-1-1-1-3 1 1v1-12l1-1-1-1v-2h-1l1-2v-2l-1-1 1-4-1-1h1l1-1v-1q-1 0-1-1v-1l-1-2v-1l1-1v1h1v-1l-1-1-1-1v-1l1-5v-4l1-1q1-1-2-3h-1 2l1-1h-1l1-1-1-1v-7l1-1-1-1-1-1 1-2v-12l-1-2 1-2v-4l-1-1 1-6-1-1v-1l1-5-1-2 1-1v-4l-1-1h-1v-1l1-1 1-1v1l1 2v-4l1-1v-4l1-3-1-2v-1l1-4v-4l1-5v-1l1-3v-6l1-2v-2l1-3v-1l1-1 1-2 1-1 1-2 3-3 1-1 1-2h1v-1q2 0 3-3h2l3-4 2-1 1-1 1-1 1-1 1-1 1-1 1-1 1-1 5-4 2-2h1l3-3 1-1 1-1 1-1 2-1 1-1 2-2 1-1 4-2 15-14 2-2 1-1 2-1q1-2 3-2l1-1 1-1h1l3-3 2-2 2-1 2-2 3-4h2l1-1 4-4 1-1 5-4 4-4 3-2 2-2 2-4 2-2h1l1-1h2v-1h7l7-1 5 1h3l3 1h8l1 1 1-1h2l3 1 2 1h3l2 1h2l1 1h3l1 1 2-1 1 1h4l1 1 1 1h6l1 1 1-1v1h1l1 1h2l2 1h2l1 1h9l2 1 2 1h2l2 1 3 1h6l3 1 1 1h5l2 1h1l3 1h7l1 1v1-1h1l1 1h1l2-1h1l1 1h2v1h5l2 1h5l2 1h3l2 1h3l1 1h2l1-1v1h1v-1h2l1-1 1-1 3-2 2-2h1l2-1 2-2 2-1 1-1h1l1-1 3-3h2l1-1 1-1h1v-1l1-1h2l1-1 1-1 2-1v-1l1-1h1l1-1 2-1 1-1h1v-1l2-1 1-1h1l1-1h1l1-1h1l1-1 2-1 1-1 1-1 1-1h1l1-1 2-1 1-1 2-1 1-1 1-1h2l1-1h1l1-1 1-1 1-1h1l1-1 1-1 3-2h1l1-1 2-2h1l1-1h2l2-2 1-1h1l1-1h1l1-1 1-1 1-1h1l1-1h1l1-1 1-2h1l1-1 1-1h2l1-1h1l1-1 1-1 2-1 3-3h1l1-1 2-1 2-1 1-1h1l1-1h1l1-1h1l1-1 1-1h1l1-1 2-1 1-1 2-2h7l1-1 3-1h3l3 1 2 1h1l1 1h3l1 1h1l1 1h3l2 1h1v1h2l1 1h1l2 1 2 1 1 1h2l1 1 1 1h1l1 1h1l1 1h1l1 1h3l2 2 1 1h1l1 1h1l1 1h2l2 1 1 1h2l1 1 2 1 1 1h1l2 1h1l1 1 2 1 1 1h1l1 1h2v1h1l2 1h1l2 2h2l1 1 1 1 1 1h4l1 1 1 1h1l1 1 1 1h1l1 1h2l2 2 1 1h1l1 1 3 1 1 1h1l1 1 1 1h1l1 1 1 1 3 2h1l1 1 1 1 2 1 1 1 2 2q2 2 3 1l3 3h2l2 1 1 1 1 1v1l1 2 1 1v2l1 1v3l1 2v10l1 1-1 3v9l1 3v1l-1 2v8l-1 10 1 3-1 2v16l-1 1v11l1 1v3l-1 1v22l-1 7v1l1 1v2l-1 1 1 1h-1v10l-1 5v5l1 1v3l-1 2v1l1 1q0 2-1 1v16l-1 1v3l1 1-1 2v2h-1l1 1v10l-1 4v5l1 1h-1l1 1v1l-1 1h1l-1 2v6l-1 5 1 1v2h-1v2l1 1-1 2v20l-1 1v2q0 3 1 3l-1 1v22l-1 2v1l1 1-1 1v4l1 1h-1v5l-1 4v6l1 1v2l-1 3 1 1v1q-1-1-1 3l-1 4v10l1 1-1 6-1 6v4l1 1v1l-1 1v1l-1 1 1 1v5l-1 3v1l1 1-1 1 1 1v2h-1v3l1 3v1l-1 2-1 2v1l1 4-1 4v10l-1 2v16l-1 1 1 2 1 3v7l-1 1-1 1v2l-1 1 1 1 1 1h-1l-1 1-1 1v1l1 1-1 2-3 2v1h1v1h-1l-1 1h-1l-3 3v1l-1 1h-1l-2 1-1 1v1l-2 1h-1l-1 2h-1l-1 1v1h-1l-1 1h-2v2l-2 1-2 1-1 2h-1l-1 1q-2 0-2 2l-1 1h-1l-1 1h-1l-1 1h-1l-1 1-1 2h-1q-1 0-3 2l-3 3-1 1-1 1h-1l-1 1-1 1h-1l-1 1-3 3-1 1v-1l-1 1-3 2-1 1-2 2-1 1h-1l-2 1-1 1v1l-1 1-1 1h-1l-1 1h-1v1h-1l-1 1-2 2-2 1h-1l-1 1-1 1-3 2-1 1-1 1h-1l-1 1h-1l-1 1-1 1-1 1h-1l-1 1-2 1-2 1h1q0-1 0 0l-1 1-1 1h-1l-2 1-1 1-1 1h-1l-1 1v1l-1 1-1 1h-1l-4 2-2 2h-1l-1 1h-1l-1 1-1 1h-1l-2 1-1 1-1 1-2 1-1 1-1 1-2 1q-2 0-3 2l-1 1h-1l-1 1-2 1-2 2-1 1h-1l-1 1h-1l-1 2v1h-1l-1 1h-1l-1 1-2 1-1 1-1 1-1 1h-1l-2 2-1 1h-1l-2 2h-1l-1 1h-1l-1 1-1 1v1l-2 1-2 1h-2l-1 1v1h-1l-3 1h-1v1h1l-1 1v-1l-1 1-2 1-2 1-1 1-3 1-1 1h-1l-1 1-1 1h-2l-1 1h-2l-2 1-2 1-1 1-2 1-2 1-2 1-1 1h-2l-1 1-1 1v1l-1 1h-1l-2 1-1 1z"/><path id="creme" fill="#F3E8D0" fill-rule="evenodd" d="M443 717zh-3l-1-1h-2l-3-1h-2l-1-1h-3l-3-2h-2l-4-1-2-1h-1l-1-1h-4l-1-1-4-1h-2l-2-1h-3l-2-1h-1l-1-1-1-1h-3l-2-1h-3l-2-1h-2l-2-1h-1l-1-1h-5l-1-1-5-1h-3l-1-1-3-1-1-1h-2l-2-1h-2l-1-1h-2l-2-1-1-1h-6l-1-1-1-1h-4l-2-1h-2l-3-1-2-1v-6l1-8v-4l1-7v-14l1-6-1-1 1-4v-32l-1-1v-7l-1-2v-2l-1-1v-4l-1-1v-2l-1-3-1-3-1-2-1-1v-2l-1-2-1-3v-1l-1-1h1l-1-1-1-1-1-1v-1l-1-1-1-1-1-3h-1v-2q-1 0 0 0v-1h-2v-1l-1-1-3-3-1-1-1-1-2-1-1-1-1-1-1-1-1-1h-1v-2l-1 1-1-1-2-1v-1h-1l-1-1-1-1h-2l-2-1h-1l-3-1h-1l-1-1h-11l-1 1h-2l-2-1-2 1-3 1-2 1h-2l-1 1-1 2-2 1-2 1-1 1-3 3h-1l-2 2-1 1-1-1v1l-1 2h-1l-2 2-1 1v1l-1 1h-1l-1 1-1 1-1 1-1 1-1 1-2 3-1 1-1 1-1 1-1 1q-2 1-1 3l-1 1q-2 0-1 2l-1 1-1 1-1 1-1 1-1 1v1l-1 1v1l-1 1-1 1v2l-1 1v1h1l-1 1-1 1-1 2v1l-1 1-1 2-1 1v1l-1 2-1 2v1l-1 1v2l-1 1v3l-1 2h-1l1 1v2l-1 2-1 3v1l-1 2v4l-1 3-1 2v2l-1 1v2h-1l-2 1q-3 0-1-1v-1h-3l-2-1-2-1-3-1h-1l-1-1h-1l-2-1-2-1-1-1h-7l-1-1-1-1h-5l-1-1-1-1h-1v1-8l1-1v-11l-1-1v-13l1-1-1-1v-12l1-3-1-1 1-2v-7l-1-1v-3l1-1v-4l1-4-1-1 1-2v-1l-1-1 1-1-1-2 1-2-1-2v-10l1-1v-1l-1-1v-5l1 1v-6l-1-2v-2l1-2v-7l1-1q0-2-1-1 0 2 0 0v-11l1-1v-3l-1-2v-1l1-3v-3l-1-2v-4l1-2v-3l-1-1v-5l1-1-1-1v-1l1-2v-10l-1-4v-1l1-1v-1l-1-1 1-2-1-1v-1l1-1v-25l-1-1v-3l1-1v-2l-1-1v-4l1-4v-2l-1-1v-6l1-2-1-3v-20h-1l1-1v-6l-1-1 1-6v-2l-1-1v-3l1-1v-2l-1-1v-26l-1-2v-1l1-1v-4l-1-1 1-1v-1l-1-1v-5l1-1q-3 0-1-1v-11l-1-3v-1l1-1-1-1v-3l2-1h1l3 1h2l3 1h5l4 1 2 1h7l3 1h2l1 1 8 1 2-1 1 1h5l7 1 2 1h3l4 1h6l5 1 4 1h11l6 1h2l1 1h8l4 1h4l2 1h3l2 1h4l4 1h4l1 1h6l1 1h2l1-1 4 1 3 1h6l1 1h7l1 1h3l3 1h3l3 1h4l5 1h3l5 1 5 1h10l2 1h6l2 1h3l2 1h1l5 1h2l4 1h4l8 1 1 1h4l3 1h4l3 1 1 1 1-1 2 1h7l2 1h3l5 1 3 1v1l1-1 1 1-1 9v1l-1 2v19l-1 2v1l1 2v3l-1 2v34l-1 7v23l1 2-1 4 1 5v1l-1 4v37l1 1-1 1v7l1 1q-2 0-1 2v9l-1 1v5l1 1v9l-1 1v6l1 1v7l-1 2 1 1-1 1 1 4-1 1v6l1 3-1 2 1 1-1 1v1l1 1-1 5v7l1 1v2l-1 1 1 1v1l-1 2v3l1 2-1 1v3l1 2v1l-1 2 1 1v5q-1 2 1 2l-1 1v1q0 2 0 0l-1 1v1l1 1-1 1 1 2v1l-1 2v2l1 6v3l-1 1v8l1 2-1 1v1l1 1v4l-1 1v2l1 1v5l-1 2v1l1 1v1h1l-1 1-1 1 1 4v3l-1 2 1 1 1 1-1 1v10l-1 3v1h2l-1 3v13l1 2-1 3v23l1 2v1l-1 1h1zm33-7-1-1v-27l-1-2 1-1v-5l1-3-1-2v-31l1-2v-4l-1-2v-5l1-6v-14l-1-2v-2l1-3v-11l-1-2v-2h-1v-1l1-1 1-1-1-2v-5l1-3v-2l-1-1v-5l1-2v-4l-1-2v-5l1-2-1-2v-8l1-2-1-2 1-1v-2l-1-1v-11l1-2-1-4v-2l1-1-2-2 1-1h1l-1-1h-1v-1q3-2 1-5l-1-1 1-1v-3l1-2-1-2-1-1 1-3v-16l-1-1h1l-1-5 1-1v-30l-1-2v-2l1-2-1-2v-2q2-1 1-3v-8l-1-4v-1l1-4-1-1 1-2-1-2v-14l-1-2 1-1v-32l-1-3 1-2-1-2v-23l-1-1v-7l-1-3v-3l-1-3v-2l1-1h1v1l1-1v-1l1-1h2l1-1h1l1-1h1l2-1h1l1-1h1l1-1h1l2-1h2l3-2h1l1-1 2-1 2-1h1l1-1 2-2h1l1 1v-1l1-2h2l1-1 1-1 1-1 1-1h3v-1l1-1h1l1-1 1-1 3-2 2-1h1l1-1h1l1-1 2-2h1l2-1 1-1 2-1 1-1h3v-1h-1 1l1-1 3-2 1-1 5-2 1-2 1-1h1l1-1 3-1 1-1 2-2h1v1-1l2-1 2-2 1-1h2l2-1 1-2 2-1 1-1h1l2-2 3-2h1l1-1 3-1 1-1 1-1 1-1 2-1 2-1q2-3 3-2h1l2-1 1-1 1-1 1-1h1l1-1 1-1 2-1 2-1 1-1 1-1h1l1-1 2-1h1l2-2h1l1-1h1q0-1 0 0l1-1 1-1 1-1h1l1-1 2-1h1l2-2 3-2 1-1h1l1 1v-1l3-3h1l1-1 2-1 1-1h1l1-1 1-1 4-1 1-1h-1l1-1h1l2-2h1l1-1 2-1 1-1 2-1 1-1h1l2-1 1-1h1l1-1 3-1 3-2v1l-1 3v5l1 1-1 1-1 3v11l-1 3v10l-1 1v13l-1 2v5l1 1-1 1v10l-1 1 1 2-1 5-1 1v3l1 1v1l-1 3v4l-1 1 1 1v7l-1 2v15l-1 1v1l1 1-1 1v9h-1v2l1 1v1l-1 2v17l-1 4v10l-1 3v11l-1 2h1v-1l-1 1v3l1 1v6l-1 3v9l-1 1 1 1-1 2 1 1v1l-1 1v6l-1 2v2l1 1v1l-1 2 1 3-1 2v1h1-2l1 1v5l-1 1v11l-1 2v2l1 2v1h-1v13l-1 4v1l1 2-1 1v8l-1 2 1 2v1l-1 2 1 1v2q-2 0-1 1v4l1 1-1 1-1 1h1v7l-1 2v1l1 3v1l-1 3v4q1 1-1 3v1l1 1-1 4v5l1 1v1l-1 4v8l-1 3v6l1 2-1 1v9l-1 2 1 1-1 2v1l1 1h-1l1 1v1l-1 2v1l1 2-1 1 1 3v1l-1 1 1 1h-1v5l-1 1v2q0 4-2 3l-1 1q0 2-2 1h-1l1 1h-1l-1 1-2 2-2 2-2 1-1 1-2 1-2 2q0 1 0 0h-1v1q1 1-2 1h-1v1l-2 2-1 1-2 2-2 1-1 1-1 1-3 1v1l-1 1-24 20-1 1v-1h-1v2h-1l-1 1v-1l-1 1-1 2-4 2q0 1 0 0h-1v1q2 0 0 0v1h-1l-1 1-1 1h-1q-1 2-3 2l-1 1h-1v1l-2 2q-2 0-3 2l-2 1-1 1-2 1-2 1-1 1-1 1-1 1h-1l-4 3-2 1-1 1-1 1h-1l-1 1-1 1-1 1-2 1-1 1-1 1h-3l-1 1-3 3-3 2-2 2-2 1-1 1v-1 1l-2 2h-1l-2 1h-1v1h-1l-1 1-2 1-1 1-1 1-1 1h-2v1q-2 1 0 0l1 1h-2l-1 1h-1l-1 1-1 1-1 1-1 1h-1l-2 1-1 1-1 1-2 1-2 2-2 1-1 1-2 1-9 5-1 1-1 1h-3m54-115zl3-1h2l1-1h1q0 1 0 0l1-2v-1l1-2 1-2 1-1v-3l1-1v-1l1-3v-4l1-2v-4l-1-18-2-9v-1l-1-2-1-2-3-1h-1l-1-1h-1l-1-1-2-1-1-2h-7l-2 1-1 2v1h-1l-1 1 1-2v-1h-1l-1 1-1 2v1l-2 3v2l-1 2v2l-1 1 1 2v1q-2 2-1 4v18l1 3v3l1 2v4l1 1v2l2 2 1 1 1 1 1 1 2 1 1 1v2l2 1h1l1 1zm61-35 3-2 1-3v-3l1-1 1-1v-4l1-1v-5l-1-2 1-1 1-1-1-3v-2h-1v-1l1-3v-1l-1-1v-4l-1-2v-2l-1-1v-1l-1-2v-2l-1-1v-1l-1-2h-1l-1-1v-1q-3 0-1-1v-1h-1l-1-1h-2v-1h-1l-2 1h-4q-3-1-4 1l-1 1v2l-1 1v2l-1 1h1l-1 1q-2 0-2 3v2l1 2-1 6v6l1 15 1 3 1 1 1 2 2 3 1 2 2 2 1 1h4l3 1 2 1h2zm34-18h2l1 1 2-1h1l3-1h2l1-1q3 0 1-2l1-1v-1l1-1v-3l1-1v-2l1-2v-10l1-1v-10l-2-10v-3l-1-1v-2l-1-2-3-2-1-1-1-2q-3-3-4-1h-4v-1l-1 1-2 1-2 1h-1v2l-1 2-2 3-1 1v2l-1 2v3l-1 6-1 3 1 1v5l-1 3 1 1-1 2 1 2 1 2-1 1v4l1 1v-1 1l1 2v1l1 2 3 5h1l2 1 1 1zm-358-69h19l1-1h1l2-1v-1l1-1 1-1 1-1v-1h-1l1-1 2-2q3-1 2-3l1-2v-1h-1v-1l1-4v-7l1-1v-7l1-3-1-2v-1l1-2v-14l1-4 1-1h3l1 1h3l4 1 42-1 2-4 1-4 1-2v-2l1-2 1-2h-1v-3l1-2h1l-1-2v-8l-1-2-1-1-1-2-7-1-1 1-1-1-4-1h-3l-2-1h-2l-1-1-1 1h-1l-1-1h-1l-3 1-1-1h-10l-1-1h-14v-5l1-1v-4l1-2v-4l-1-1 1-1h1v-3l-1-4v-1l1-1v-4l1-1v-4l-1-1 1-1v-8l-1-1v-3l-1-3v-2q0-3-2-3h-1l-1-1h-1l-4-1-2-1h-2l-4-2h-1v1l-2-1h-3l-5-1h-4l-1 1-2 2h-3l-1 1v1l-1 1-1 1v2l-1 2v7l-1 3-1 4v6l-1 5-1 6 1 1v13h-2l-2-1h-1q-2 2-4-1h-1l-1 1h-7l-1-1h-26l-5 1h-2q-2 0-5 3v3l-1 2v1l-1 1 1 1-1 2v1l-1 1-1 3v1l-1 1v3l-1 1v3l1 1v2q1 3 5 2l2 2h4l5 1q4 0 5 2h3l2 1h5l2 1 2 1h5l3 1h7l2 1q6 0 5 2v2l-1 4v4l-1 1v9l-1 1v9l-1 2v2l-1 4v5l1 1-1 3 1 2v2l-1 1v1l1 2v7l1 2 1 1v-1 1l1 1h2l1 1h1l2 1h6m268-1q2 1 3-2l2-1v-1l1-2 1-1 1-1 1-1 1-5v-2l1-1-1-1v-2l1-2v-4l-1-2v-5l-1-1v-1l-1-2v-1l1-1-1-1v-1l-1-2-1-2v-2l-1-1-1-5-1-2-1-1-1-2-1-1-1-1-1-1-1-1-1 1h-2l-4 2h-8l-1 1-2 2-1 1v1h1l-2 2v1l-1 1-1 2v1l-1 2h1l-1 2v4l1 1v16l1 2v1l1 1-1 1 1 1v1l1 1v2l1 1v1l1 2 1 1v1l2 2 1 2 1 1 2 1h2l1-1h6v1zm53-29 1-1h4l2-1h1l3-1v-2l1-2v-1l1-1-1-1 1-1v-5l-1-9v-1l1-1h-1v-2l-1-1v-6l-1-2v-3l-1-2-1-4v-2l-1-1-1-2-1-2-1-1 1-1h-1l-2-2v-1h-2l-1-1-1-1h-1l-1-1h-3l-2 1h-1l-1 1-1 1-4 2-2 3v1l-1 2v10l-1 3v2l1 1v1l1 4v3l2 7v4l1 1 1 2v2l1 1v3l1 2q1 2 3 2h2v1h1q0 2 3 2zm41-15 2-1 4-2 1-2 5-5 1-3 1-2v-9l-1-2 1-2-1-2v-1l-1-3v-6l-1-1v-5l-2-2-1-1 1-1v-1h-1l-4-4 1-1h-2v-2l-1-1-2-2h-2l-1-1-2-2v1q1 1-1 1h-3v-2h-1l-2 2-1 1-1 1q1 2-1 2l-2 2-1 1-1 2h-1v4l-1 3v4l-1 1v1l1 1v4l1 2v5l1 4v3l1 1 1 2 1 1v1l1 1 1 2 1 2v2l1 1 1 2 1 1v1l1 1h1l3 2h1v-1h3v1zm-98-69q5 0 5-2l1-1v-3l1-3 2-6v-2l1-3v-1l-1-1v-1q-1-1 1-2v-1l-1-2v-6l-1-3v-1q1-1-1-3l-1-2-1-2-2-2q1-2-1-3h-1v-1l-1-1-1-1-1-1-1-1-1 1v-2q1-1-1-1h-11l-1 1-1 2-1 1-1 3v1l-1 2-1 1-2 5-1 2v4l1 6v3l1 3v4l1 1 1 5 1 2 1 1v1l1 1 1 2 1 1 1 1 2 1v1h1l1 1 1 1h1l2-1h2l1 1h4m43-20 2-1 1-1h4v-1h1v-1l1-1 1 1 3-1v-1h-2l2-1q2 1 1-2v-1l1-1v-3l1-3v-13q-2-1-1-3l-2-4-1-2v-1l-1-1v-2l-1-4-1-1v-4h-1v1-1l-1-1h-2l-2-1h-2v-2l-3-3-5 1-3 2h-1l-1 1-3 3v2l-1 1v2l-1 2 1 2-1 1v3l-1 5-1 3v15h-1l1 1v3l1 2q0 3 2 3l2 1h1l3 2v1h2l2 1 2 1zm56-23 2-3h1l1-3v-2l1-3 1-2v-1q0-1 2-1v-1l-1-1 1-1v-5h-1l1-1h1v-7l-1-1v-1l1-3h-1v1l-1-1h1v-1l1-1-1-1h1l-1-1v-1l-1-1v-10l-1-1v-2l-1-1-1-1v-2l-1-2v-1l-1 1v-1l-1-1v-1l-1-1v-1h-1l-1 1-3-1h-4l-1 1-1-1h-2l-1 1-2 1v2l-1 2v-1l-1-1v3l1 1-1 2-2 1v1l-1 1-1 2v1h-1v1l-1 3 1 1v1l-1 1 1 3v3l-1 3 1 1-1 2 1 1-1 2v10l1 2v2l1 3 1 1 1 1 1 1v2h1l1 2 1 1h-1 1l1 1h1l1 1h5l2 1h6"/></svg>